<mxfile host="app.diagrams.net" agent="Mozilla/5.0 (Windows NT 10.0; Win64; x64) AppleWebKit/537.36 (KHTML, like Gecko) Chrome/135.0.0.0 Safari/537.36" version="26.2.14">
  <diagram name="Page-1" id="SEXxjAmdglwKGAw8VcgB">
    <mxGraphModel dx="1875" dy="425" grid="1" gridSize="10" guides="1" tooltips="1" connect="1" arrows="1" fold="1" page="1" pageScale="1" pageWidth="850" pageHeight="1100" math="0" shadow="0">
      <root>
        <mxCell id="0" />
        <mxCell id="1" parent="0" />
        <mxCell id="iHEphgbWqHLC4cZoTlr4-3" value="" style="endArrow=none;html=1;rounded=0;fillColor=#008a00;strokeColor=#005700;" parent="1" edge="1">
          <mxGeometry width="50" height="50" relative="1" as="geometry">
            <mxPoint x="-360" y="400" as="sourcePoint" />
            <mxPoint x="1000" y="400" as="targetPoint" />
          </mxGeometry>
        </mxCell>
        <mxCell id="iHEphgbWqHLC4cZoTlr4-4" value="" style="endArrow=none;html=1;rounded=0;fillColor=#0050ef;strokeColor=#001DBC;" parent="1" edge="1">
          <mxGeometry width="50" height="50" relative="1" as="geometry">
            <mxPoint x="-360" y="680" as="sourcePoint" />
            <mxPoint x="1000" y="680" as="targetPoint" />
          </mxGeometry>
        </mxCell>
        <mxCell id="iHEphgbWqHLC4cZoTlr4-5" value="" style="endArrow=none;html=1;rounded=0;fillColor=#d80073;strokeColor=#A50040;" parent="1" edge="1">
          <mxGeometry width="50" height="50" relative="1" as="geometry">
            <mxPoint x="-360" y="800" as="sourcePoint" />
            <mxPoint x="1000" y="800" as="targetPoint" />
          </mxGeometry>
        </mxCell>
        <mxCell id="iHEphgbWqHLC4cZoTlr4-8" value="" style="whiteSpace=wrap;html=1;aspect=fixed;" parent="1" vertex="1">
          <mxGeometry x="-280" y="480" width="120" height="120" as="geometry" />
        </mxCell>
        <mxCell id="iHEphgbWqHLC4cZoTlr4-9" value="" style="whiteSpace=wrap;html=1;aspect=fixed;" parent="1" vertex="1">
          <mxGeometry x="-40" y="480" width="120" height="120" as="geometry" />
        </mxCell>
        <mxCell id="iHEphgbWqHLC4cZoTlr4-10" value="" style="whiteSpace=wrap;html=1;aspect=fixed;" parent="1" vertex="1">
          <mxGeometry x="200" y="480" width="120" height="120" as="geometry" />
        </mxCell>
        <mxCell id="iHEphgbWqHLC4cZoTlr4-11" value="eno1" style="whiteSpace=wrap;html=1;aspect=fixed;" parent="1" vertex="1">
          <mxGeometry x="-190" y="480" width="30" height="30" as="geometry" />
        </mxCell>
        <mxCell id="iHEphgbWqHLC4cZoTlr4-12" value="eno1" style="whiteSpace=wrap;html=1;aspect=fixed;" parent="1" vertex="1">
          <mxGeometry x="50" y="480" width="30" height="30" as="geometry" />
        </mxCell>
        <mxCell id="iHEphgbWqHLC4cZoTlr4-13" value="eno1" style="whiteSpace=wrap;html=1;aspect=fixed;" parent="1" vertex="1">
          <mxGeometry x="290" y="480" width="30" height="30" as="geometry" />
        </mxCell>
        <mxCell id="iHEphgbWqHLC4cZoTlr4-14" value="enp65s0f0" style="rounded=0;whiteSpace=wrap;html=1;" parent="1" vertex="1">
          <mxGeometry x="-280" y="570" width="60" height="30" as="geometry" />
        </mxCell>
        <mxCell id="iHEphgbWqHLC4cZoTlr4-15" value="enp65s0f1" style="rounded=0;whiteSpace=wrap;html=1;" parent="1" vertex="1">
          <mxGeometry x="-220" y="570" width="60" height="30" as="geometry" />
        </mxCell>
        <mxCell id="iHEphgbWqHLC4cZoTlr4-16" value="enp65s0f0" style="rounded=0;whiteSpace=wrap;html=1;" parent="1" vertex="1">
          <mxGeometry x="-40" y="570" width="60" height="30" as="geometry" />
        </mxCell>
        <mxCell id="iHEphgbWqHLC4cZoTlr4-17" value="enp65s0f1" style="rounded=0;whiteSpace=wrap;html=1;" parent="1" vertex="1">
          <mxGeometry x="20" y="570" width="60" height="30" as="geometry" />
        </mxCell>
        <mxCell id="iHEphgbWqHLC4cZoTlr4-18" value="enp65s0f0" style="rounded=0;whiteSpace=wrap;html=1;" parent="1" vertex="1">
          <mxGeometry x="200" y="570" width="60" height="30" as="geometry" />
        </mxCell>
        <mxCell id="iHEphgbWqHLC4cZoTlr4-19" value="enp65s0f1" style="rounded=0;whiteSpace=wrap;html=1;" parent="1" vertex="1">
          <mxGeometry x="260" y="570" width="60" height="30" as="geometry" />
        </mxCell>
        <mxCell id="iHEphgbWqHLC4cZoTlr4-20" value="" style="endArrow=none;html=1;rounded=0;exitX=0.5;exitY=0;exitDx=0;exitDy=0;fillColor=#008a00;strokeColor=#005700;" parent="1" source="iHEphgbWqHLC4cZoTlr4-11" edge="1">
          <mxGeometry width="50" height="50" relative="1" as="geometry">
            <mxPoint x="50" y="480" as="sourcePoint" />
            <mxPoint x="-175" y="400" as="targetPoint" />
          </mxGeometry>
        </mxCell>
        <mxCell id="iHEphgbWqHLC4cZoTlr4-21" value="" style="endArrow=none;html=1;rounded=0;exitX=0.5;exitY=0;exitDx=0;exitDy=0;fillColor=#008a00;strokeColor=#005700;" parent="1" source="iHEphgbWqHLC4cZoTlr4-12" edge="1">
          <mxGeometry width="50" height="50" relative="1" as="geometry">
            <mxPoint x="-40" y="330" as="sourcePoint" />
            <mxPoint x="65" y="400" as="targetPoint" />
          </mxGeometry>
        </mxCell>
        <mxCell id="iHEphgbWqHLC4cZoTlr4-22" value="" style="endArrow=none;html=1;rounded=0;exitX=0.5;exitY=0;exitDx=0;exitDy=0;fillColor=#008a00;strokeColor=#005700;" parent="1" edge="1">
          <mxGeometry width="50" height="50" relative="1" as="geometry">
            <mxPoint x="304.71000000000004" y="480" as="sourcePoint" />
            <mxPoint x="304.71000000000004" y="400" as="targetPoint" />
          </mxGeometry>
        </mxCell>
        <mxCell id="iHEphgbWqHLC4cZoTlr4-23" value="" style="endArrow=none;html=1;rounded=0;exitX=0.5;exitY=1;exitDx=0;exitDy=0;fillColor=#0050ef;strokeColor=#001DBC;" parent="1" source="iHEphgbWqHLC4cZoTlr4-14" edge="1">
          <mxGeometry width="50" height="50" relative="1" as="geometry">
            <mxPoint x="50" y="530" as="sourcePoint" />
            <mxPoint x="-250" y="680" as="targetPoint" />
          </mxGeometry>
        </mxCell>
        <mxCell id="iHEphgbWqHLC4cZoTlr4-24" value="" style="endArrow=none;html=1;rounded=0;fillColor=#d80073;strokeColor=#A50040;" parent="1" edge="1">
          <mxGeometry width="50" height="50" relative="1" as="geometry">
            <mxPoint x="-190" y="601" as="sourcePoint" />
            <mxPoint x="-190" y="800" as="targetPoint" />
          </mxGeometry>
        </mxCell>
        <mxCell id="iHEphgbWqHLC4cZoTlr4-25" value="" style="endArrow=none;html=1;rounded=0;exitX=0.5;exitY=1;exitDx=0;exitDy=0;fillColor=#0050ef;strokeColor=#001DBC;" parent="1" edge="1">
          <mxGeometry width="50" height="50" relative="1" as="geometry">
            <mxPoint x="-10.29" y="600" as="sourcePoint" />
            <mxPoint x="-10.29" y="680" as="targetPoint" />
          </mxGeometry>
        </mxCell>
        <mxCell id="iHEphgbWqHLC4cZoTlr4-26" value="" style="endArrow=none;html=1;rounded=0;exitX=0.5;exitY=1;exitDx=0;exitDy=0;fillColor=#0050ef;strokeColor=#001DBC;" parent="1" edge="1">
          <mxGeometry width="50" height="50" relative="1" as="geometry">
            <mxPoint x="229.70999999999998" y="600" as="sourcePoint" />
            <mxPoint x="229.70999999999998" y="680" as="targetPoint" />
          </mxGeometry>
        </mxCell>
        <mxCell id="iHEphgbWqHLC4cZoTlr4-27" value="" style="endArrow=none;html=1;rounded=0;fillColor=#d80073;strokeColor=#A50040;" parent="1" edge="1">
          <mxGeometry width="50" height="50" relative="1" as="geometry">
            <mxPoint x="50" y="600" as="sourcePoint" />
            <mxPoint x="50" y="799" as="targetPoint" />
          </mxGeometry>
        </mxCell>
        <mxCell id="iHEphgbWqHLC4cZoTlr4-28" value="" style="endArrow=none;html=1;rounded=0;fillColor=#d80073;strokeColor=#A50040;" parent="1" edge="1">
          <mxGeometry width="50" height="50" relative="1" as="geometry">
            <mxPoint x="290" y="600" as="sourcePoint" />
            <mxPoint x="290" y="799" as="targetPoint" />
          </mxGeometry>
        </mxCell>
        <mxCell id="iHEphgbWqHLC4cZoTlr4-29" value="KVMnode137" style="text;html=1;align=center;verticalAlign=middle;whiteSpace=wrap;rounded=0;" parent="1" vertex="1">
          <mxGeometry x="-250" y="520" width="60" height="30" as="geometry" />
        </mxCell>
        <mxCell id="iHEphgbWqHLC4cZoTlr4-30" value="KVMnode138" style="text;html=1;align=center;verticalAlign=middle;whiteSpace=wrap;rounded=0;" parent="1" vertex="1">
          <mxGeometry x="-10" y="520" width="60" height="30" as="geometry" />
        </mxCell>
        <mxCell id="iHEphgbWqHLC4cZoTlr4-31" value="KVMnode139" style="text;html=1;align=center;verticalAlign=middle;whiteSpace=wrap;rounded=0;" parent="1" vertex="1">
          <mxGeometry x="230" y="520" width="60" height="30" as="geometry" />
        </mxCell>
        <mxCell id="iHEphgbWqHLC4cZoTlr4-35" value="" style="whiteSpace=wrap;html=1;aspect=fixed;" parent="1" vertex="1">
          <mxGeometry x="440" y="480" width="120" height="120" as="geometry" />
        </mxCell>
        <mxCell id="iHEphgbWqHLC4cZoTlr4-36" value="" style="whiteSpace=wrap;html=1;aspect=fixed;" parent="1" vertex="1">
          <mxGeometry x="600" y="480" width="120" height="120" as="geometry" />
        </mxCell>
        <mxCell id="iHEphgbWqHLC4cZoTlr4-37" value="" style="whiteSpace=wrap;html=1;aspect=fixed;" parent="1" vertex="1">
          <mxGeometry x="760" y="480" width="120" height="120" as="geometry" />
        </mxCell>
        <mxCell id="iHEphgbWqHLC4cZoTlr4-38" value="enp65s0f0" style="rounded=0;whiteSpace=wrap;html=1;" parent="1" vertex="1">
          <mxGeometry x="440" y="570" width="60" height="30" as="geometry" />
        </mxCell>
        <mxCell id="iHEphgbWqHLC4cZoTlr4-39" value="enp65s0f0" style="rounded=0;whiteSpace=wrap;html=1;" parent="1" vertex="1">
          <mxGeometry x="600" y="570" width="60" height="30" as="geometry" />
        </mxCell>
        <mxCell id="iHEphgbWqHLC4cZoTlr4-40" value="enp65s0f0" style="rounded=0;whiteSpace=wrap;html=1;" parent="1" vertex="1">
          <mxGeometry x="760" y="570" width="60" height="30" as="geometry" />
        </mxCell>
        <mxCell id="iHEphgbWqHLC4cZoTlr4-41" value="eno1" style="whiteSpace=wrap;html=1;aspect=fixed;" parent="1" vertex="1">
          <mxGeometry x="530" y="480" width="30" height="30" as="geometry" />
        </mxCell>
        <mxCell id="iHEphgbWqHLC4cZoTlr4-42" value="eno1" style="whiteSpace=wrap;html=1;aspect=fixed;" parent="1" vertex="1">
          <mxGeometry x="690" y="480" width="30" height="30" as="geometry" />
        </mxCell>
        <mxCell id="iHEphgbWqHLC4cZoTlr4-43" value="eno1" style="whiteSpace=wrap;html=1;aspect=fixed;" parent="1" vertex="1">
          <mxGeometry x="850" y="480" width="30" height="30" as="geometry" />
        </mxCell>
        <mxCell id="iHEphgbWqHLC4cZoTlr4-44" value="enp65s0f1" style="rounded=0;whiteSpace=wrap;html=1;" parent="1" vertex="1">
          <mxGeometry x="500" y="570" width="60" height="30" as="geometry" />
        </mxCell>
        <mxCell id="iHEphgbWqHLC4cZoTlr4-45" value="enp65s0f1" style="rounded=0;whiteSpace=wrap;html=1;" parent="1" vertex="1">
          <mxGeometry x="660" y="570" width="60" height="30" as="geometry" />
        </mxCell>
        <mxCell id="iHEphgbWqHLC4cZoTlr4-46" value="enp65s0f1" style="rounded=0;whiteSpace=wrap;html=1;" parent="1" vertex="1">
          <mxGeometry x="820" y="570" width="60" height="30" as="geometry" />
        </mxCell>
        <mxCell id="iHEphgbWqHLC4cZoTlr4-47" value="" style="endArrow=none;html=1;rounded=0;fillColor=#d80073;strokeColor=#A50040;" parent="1" edge="1">
          <mxGeometry width="50" height="50" relative="1" as="geometry">
            <mxPoint x="530" y="600" as="sourcePoint" />
            <mxPoint x="530" y="799" as="targetPoint" />
          </mxGeometry>
        </mxCell>
        <mxCell id="iHEphgbWqHLC4cZoTlr4-48" value="" style="endArrow=none;html=1;rounded=0;fillColor=#d80073;strokeColor=#A50040;" parent="1" edge="1">
          <mxGeometry width="50" height="50" relative="1" as="geometry">
            <mxPoint x="690" y="600" as="sourcePoint" />
            <mxPoint x="690" y="799" as="targetPoint" />
          </mxGeometry>
        </mxCell>
        <mxCell id="iHEphgbWqHLC4cZoTlr4-49" value="" style="endArrow=none;html=1;rounded=0;fillColor=#d80073;strokeColor=#A50040;" parent="1" edge="1">
          <mxGeometry width="50" height="50" relative="1" as="geometry">
            <mxPoint x="850" y="600" as="sourcePoint" />
            <mxPoint x="850" y="799" as="targetPoint" />
          </mxGeometry>
        </mxCell>
        <mxCell id="iHEphgbWqHLC4cZoTlr4-50" value="Cephnode134" style="text;html=1;align=center;verticalAlign=middle;whiteSpace=wrap;rounded=0;" parent="1" vertex="1">
          <mxGeometry x="470" y="520" width="60" height="30" as="geometry" />
        </mxCell>
        <mxCell id="iHEphgbWqHLC4cZoTlr4-51" value="Cephnode135" style="text;html=1;align=center;verticalAlign=middle;whiteSpace=wrap;rounded=0;" parent="1" vertex="1">
          <mxGeometry x="630" y="520" width="60" height="30" as="geometry" />
        </mxCell>
        <mxCell id="iHEphgbWqHLC4cZoTlr4-52" value="Cephnode136" style="text;html=1;align=center;verticalAlign=middle;whiteSpace=wrap;rounded=0;" parent="1" vertex="1">
          <mxGeometry x="790" y="525" width="60" height="30" as="geometry" />
        </mxCell>
        <mxCell id="iHEphgbWqHLC4cZoTlr4-54" value="" style="endArrow=none;html=1;rounded=0;exitX=0.5;exitY=0;exitDx=0;exitDy=0;fillColor=#008a00;strokeColor=#005700;" parent="1" edge="1">
          <mxGeometry width="50" height="50" relative="1" as="geometry">
            <mxPoint x="544.5" y="480" as="sourcePoint" />
            <mxPoint x="544.5" y="400" as="targetPoint" />
          </mxGeometry>
        </mxCell>
        <mxCell id="iHEphgbWqHLC4cZoTlr4-55" value="" style="endArrow=none;html=1;rounded=0;exitX=0.5;exitY=0;exitDx=0;exitDy=0;fillColor=#008a00;strokeColor=#005700;" parent="1" edge="1">
          <mxGeometry width="50" height="50" relative="1" as="geometry">
            <mxPoint x="704.5" y="480" as="sourcePoint" />
            <mxPoint x="704.5" y="400" as="targetPoint" />
          </mxGeometry>
        </mxCell>
        <mxCell id="iHEphgbWqHLC4cZoTlr4-56" value="" style="endArrow=none;html=1;rounded=0;exitX=0.5;exitY=0;exitDx=0;exitDy=0;fillColor=#008a00;strokeColor=#005700;" parent="1" edge="1">
          <mxGeometry width="50" height="50" relative="1" as="geometry">
            <mxPoint x="864.5" y="480" as="sourcePoint" />
            <mxPoint x="864.5" y="400" as="targetPoint" />
          </mxGeometry>
        </mxCell>
        <mxCell id="iHEphgbWqHLC4cZoTlr4-59" value="" style="sketch=0;points=[[0.015,0.015,0],[0.985,0.015,0],[0.985,0.985,0],[0.015,0.985,0],[0.25,0,0],[0.5,0,0],[0.75,0,0],[1,0.25,0],[1,0.5,0],[1,0.75,0],[0.75,1,0],[0.5,1,0],[0.25,1,0],[0,0.75,0],[0,0.5,0],[0,0.25,0]];verticalLabelPosition=bottom;html=1;verticalAlign=top;aspect=fixed;align=center;pointerEvents=1;shape=mxgraph.cisco19.rect;prIcon=secure_catalyst_switch_color;fillColor=#FAFAFA;strokeColor=#005073;" parent="1" vertex="1">
          <mxGeometry x="950" y="630" width="230" height="230" as="geometry" />
        </mxCell>
        <mxCell id="iHEphgbWqHLC4cZoTlr4-61" value="" style="sketch=0;points=[[0.015,0.015,0],[0.985,0.015,0],[0.985,0.985,0],[0.015,0.985,0],[0.25,0,0],[0.5,0,0],[0.75,0,0],[1,0.25,0],[1,0.5,0],[1,0.75,0],[0.75,1,0],[0.5,1,0],[0.25,1,0],[0,0.75,0],[0,0.5,0],[0,0.25,0]];verticalLabelPosition=bottom;html=1;verticalAlign=top;aspect=fixed;align=center;pointerEvents=1;shape=mxgraph.cisco19.rect;prIcon=secure_catalyst_switch_subdued;fillColor=#FAFAFA;strokeColor=#6696AB;" parent="1" vertex="1">
          <mxGeometry x="950" y="350" width="50" height="50" as="geometry" />
        </mxCell>
        <mxCell id="iHEphgbWqHLC4cZoTlr4-62" value="" style="image;html=1;image=img/lib/clip_art/networking/Router_Icon_128x128.png" parent="1" vertex="1">
          <mxGeometry x="935" y="220" width="80" height="70" as="geometry" />
        </mxCell>
        <mxCell id="iHEphgbWqHLC4cZoTlr4-64" value="" style="image;aspect=fixed;perimeter=ellipsePerimeter;html=1;align=center;shadow=0;dashed=0;spacingTop=3;image=img/lib/active_directory/internet_cloud.svg;" parent="1" vertex="1">
          <mxGeometry x="895.64" y="20" width="158.73" height="100" as="geometry" />
        </mxCell>
        <mxCell id="iHEphgbWqHLC4cZoTlr4-67" value="" style="endArrow=none;html=1;rounded=0;entryX=0.5;entryY=0;entryDx=0;entryDy=0;entryPerimeter=0;exitX=0.5;exitY=1;exitDx=0;exitDy=0;" parent="1" source="iHEphgbWqHLC4cZoTlr4-62" target="iHEphgbWqHLC4cZoTlr4-61" edge="1">
          <mxGeometry width="50" height="50" relative="1" as="geometry">
            <mxPoint x="450" y="330" as="sourcePoint" />
            <mxPoint x="500" y="280" as="targetPoint" />
          </mxGeometry>
        </mxCell>
        <mxCell id="iHEphgbWqHLC4cZoTlr4-68" value="" style="endArrow=none;html=1;rounded=0;entryX=0.5;entryY=0;entryDx=0;entryDy=0;exitX=0.5;exitY=1;exitDx=0;exitDy=0;" parent="1" source="iHEphgbWqHLC4cZoTlr4-64" target="iHEphgbWqHLC4cZoTlr4-62" edge="1">
          <mxGeometry width="50" height="50" relative="1" as="geometry">
            <mxPoint x="450" y="330" as="sourcePoint" />
            <mxPoint x="500" y="280" as="targetPoint" />
          </mxGeometry>
        </mxCell>
        <mxCell id="iHEphgbWqHLC4cZoTlr4-69" value="Cisco 3750" style="text;html=1;align=center;verticalAlign=middle;whiteSpace=wrap;rounded=0;" parent="1" vertex="1">
          <mxGeometry x="1000" y="370" width="60" height="30" as="geometry" />
        </mxCell>
        <mxCell id="iHEphgbWqHLC4cZoTlr4-70" value="Nexus 3064" style="text;html=1;align=center;verticalAlign=middle;whiteSpace=wrap;rounded=0;" parent="1" vertex="1">
          <mxGeometry x="1040" y="590" width="60" height="30" as="geometry" />
        </mxCell>
        <mxCell id="iHEphgbWqHLC4cZoTlr4-72" value="172.16.9.0/24" style="text;html=1;align=center;verticalAlign=middle;whiteSpace=wrap;rounded=0;" parent="1" vertex="1">
          <mxGeometry x="880" y="370" width="60" height="30" as="geometry" />
        </mxCell>
        <mxCell id="iHEphgbWqHLC4cZoTlr4-74" value="10.10.66.0/24" style="text;html=1;align=center;verticalAlign=middle;whiteSpace=wrap;rounded=0;" parent="1" vertex="1">
          <mxGeometry x="880" y="650" width="60" height="30" as="geometry" />
        </mxCell>
        <mxCell id="iHEphgbWqHLC4cZoTlr4-75" value="10.10.88.0/24" style="text;html=1;align=center;verticalAlign=middle;whiteSpace=wrap;rounded=0;" parent="1" vertex="1">
          <mxGeometry x="875" y="770" width="60" height="30" as="geometry" />
        </mxCell>
        <mxCell id="iHEphgbWqHLC4cZoTlr4-76" value="" style="endArrow=none;dashed=1;html=1;dashPattern=1 3;strokeWidth=2;rounded=0;" parent="1" edge="1">
          <mxGeometry width="50" height="50" relative="1" as="geometry">
            <mxPoint x="400" y="640" as="sourcePoint" />
            <mxPoint x="400" y="640" as="targetPoint" />
            <Array as="points">
              <mxPoint x="400" y="440" />
              <mxPoint x="920" y="440" />
              <mxPoint x="920" y="640" />
            </Array>
          </mxGeometry>
        </mxCell>
        <mxCell id="iHEphgbWqHLC4cZoTlr4-77" value="" style="endArrow=none;dashed=1;html=1;dashPattern=1 3;strokeWidth=2;rounded=0;" parent="1" edge="1">
          <mxGeometry width="50" height="50" relative="1" as="geometry">
            <mxPoint x="-320" y="640" as="sourcePoint" />
            <mxPoint x="-320" y="640" as="targetPoint" />
            <Array as="points">
              <mxPoint x="-320" y="440" />
              <mxPoint x="60" y="440" />
              <mxPoint x="340" y="440" />
              <mxPoint x="340" y="640" />
            </Array>
          </mxGeometry>
        </mxCell>
        <mxCell id="iHEphgbWqHLC4cZoTlr4-78" value="KVM HA" style="text;html=1;align=center;verticalAlign=middle;whiteSpace=wrap;rounded=0;" parent="1" vertex="1">
          <mxGeometry x="-320" y="440" width="60" height="30" as="geometry" />
        </mxCell>
        <mxCell id="iHEphgbWqHLC4cZoTlr4-79" value="Ceph Cluster" style="text;html=1;align=center;verticalAlign=middle;whiteSpace=wrap;rounded=0;" parent="1" vertex="1">
          <mxGeometry x="400" y="440" width="60" height="30" as="geometry" />
        </mxCell>
        <mxCell id="eP-qyue3oQ5mY9YcOtdK-1" value="" style="endArrow=none;html=1;rounded=0;entryX=0.5;entryY=1;entryDx=0;entryDy=0;fillColor=#d80073;strokeColor=#A50040;" parent="1" target="iHEphgbWqHLC4cZoTlr4-38" edge="1">
          <mxGeometry width="50" height="50" relative="1" as="geometry">
            <mxPoint x="470" y="800" as="sourcePoint" />
            <mxPoint x="420" y="660" as="targetPoint" />
          </mxGeometry>
        </mxCell>
        <mxCell id="eP-qyue3oQ5mY9YcOtdK-2" value="" style="endArrow=none;html=1;rounded=0;fillColor=#d80073;strokeColor=#A50040;" parent="1" edge="1">
          <mxGeometry width="50" height="50" relative="1" as="geometry">
            <mxPoint x="629" y="600" as="sourcePoint" />
            <mxPoint x="629" y="799" as="targetPoint" />
          </mxGeometry>
        </mxCell>
        <mxCell id="eP-qyue3oQ5mY9YcOtdK-3" value="" style="endArrow=none;html=1;rounded=0;fillColor=#d80073;strokeColor=#A50040;" parent="1" edge="1">
          <mxGeometry width="50" height="50" relative="1" as="geometry">
            <mxPoint x="790" y="601" as="sourcePoint" />
            <mxPoint x="790" y="800" as="targetPoint" />
          </mxGeometry>
        </mxCell>
        <mxCell id="eP-qyue3oQ5mY9YcOtdK-4" value="" style="ellipse;whiteSpace=wrap;html=1;" parent="1" vertex="1">
          <mxGeometry x="460" y="750" width="80" height="20" as="geometry" />
        </mxCell>
        <mxCell id="eP-qyue3oQ5mY9YcOtdK-5" value="" style="ellipse;whiteSpace=wrap;html=1;" parent="1" vertex="1">
          <mxGeometry x="620" y="750" width="80" height="20" as="geometry" />
        </mxCell>
        <mxCell id="eP-qyue3oQ5mY9YcOtdK-6" value="" style="ellipse;whiteSpace=wrap;html=1;" parent="1" vertex="1">
          <mxGeometry x="780" y="750" width="80" height="20" as="geometry" />
        </mxCell>
      </root>
    </mxGraphModel>
  </diagram>
</mxfile>
